<?xml version="1.0" encoding="UTF-8" standalone="no"?>
<!-- Created with Inkscape (http://www.inkscape.org/) -->

<svg
   xmlns:dc="http://purl.org/dc/elements/1.1/"
   xmlns:cc="http://creativecommons.org/ns#"
   xmlns:rdf="http://www.w3.org/1999/02/22-rdf-syntax-ns#"
   xmlns:svg="http://www.w3.org/2000/svg"
   xmlns="http://www.w3.org/2000/svg"
   xmlns:sodipodi="http://sodipodi.sourceforge.net/DTD/sodipodi-0.dtd"
   xmlns:inkscape="http://www.inkscape.org/namespaces/inkscape"
   width="100"
   height="95.692001"
   viewBox="0 0 26.458333 25.318508"
   version="1.1"
   id="svg8"
   inkscape:version="0.92.5 (2060ec1f9f, 2020-04-08)"
   sodipodi:docname="facebook-icon.svg">
  <defs
     id="defs2" />
  <sodipodi:namedview
     id="base"
     pagecolor="#ffffff"
     bordercolor="#666666"
     borderopacity="1.0"
     inkscape:pageopacity="0.0"
     inkscape:pageshadow="2"
     inkscape:zoom="5.6"
     inkscape:cx="70.127194"
     inkscape:cy="38.645768"
     inkscape:document-units="mm"
     inkscape:current-layer="layer1"
     showgrid="false"
     showguides="true"
     inkscape:guide-bbox="true"
     units="px"
     inkscape:window-width="1366"
     inkscape:window-height="711"
     inkscape:window-x="0"
     inkscape:window-y="0"
     inkscape:window-maximized="1" />
  <metadata
     id="metadata5">
    <rdf:RDF>
      <cc:Work
         rdf:about="">
        <dc:format>image/svg+xml</dc:format>
        <dc:type
           rdf:resource="http://purl.org/dc/dcmitype/StillImage" />
        <dc:title></dc:title>
      </cc:Work>
    </rdf:RDF>
  </metadata>
  <g
     inkscape:label="Camada 1"
     inkscape:groupmode="layer"
     id="layer1"
     transform="translate(0,-271.68149)">
    <path
       style="fill:#d6000d;fill-opacity:1;stroke:#d6000d;stroke-width:0.56059772px;stroke-linecap:butt;stroke-linejoin:miter;stroke-opacity:1"
       d="M 2.1384343,271.96197 H 24.683833 c 0,0 1.486508,0.49549 1.486508,1.4865 v 21.62516 c 0,0 0.152067,1.64607 -0.950364,1.64607 l -8.942512,0 0,-7.65754 c 0,0 -0.05127,-0.59824 0.655933,-0.60396 l 3.04315,-0.0245 v -4.25453 h -3.599725 l 0.02503,-2.73179 c 0,0 -0.16944,-1.20191 0.69393,-1.20191 h 3.44706 v -4.61244 c -1.964315,0.002 -3.857846,-0.005 -5.822163,-0.008 -1.970213,-0.002 -4.136418,1.76755 -4.087899,5.00812 l 0.0531,3.54583 H 6.4917991 v 4.25452 h 3.7162639 l -0.0084,8.2862 H 1.4305771 c 0,0 -1.15027821,-0.10915 -1.15027821,-1.04708 v -21.69335 c 0,0 0.23005904,-2.01739 1.85814041,-2.01739 z"
       id="path882"
       inkscape:connector-curvature="0"
       sodipodi:nodetypes="ccsccccsccccsccssccccccscsc" />
  </g>
</svg>
